<svg xmlns="http://www.w3.org/2000/svg" xmlns:xlink="http://www.w3.org/1999/xlink" version="1.1" data-diagram-type="STATE" style="width:731px;height:714px;background:#FFFFFF;" width="731px" height="714px" viewBox="0 0 731 714" zoomAndPan="magnify" preserveAspectRatio="none" contentStyleType="text/css"><?plantuml 1.2026.7beta8?><defs/><g font-family="sans-serif" lengthAdjust="spacing"><g class="title" data-source-line="1"><text x="271.118" y="22.995" fill="#000" font-size="14" textLength="182.561" font-weight="700">Estado de la propuesta</text></g><g class="entity" data-qualified-name="BORRADOR" id="ent0001" data-source-line="17"><rect x="238.21" y="140.297" width="198.78" height="52.594" fill="#F1F1F1" style="stroke:#181818;stroke-width:0.5;" rx="12.5" ry="12.5"/><line x1="238.21" y1="166.594" x2="436.99" y2="166.594" style="stroke:#181818;stroke-width:0.5;"/><text x="297.008" y="158.292" fill="#000" font-size="14" textLength="81.184">BORRADOR</text><text x="243.21" y="184.589" fill="#000" font-size="14" textLength="178.78">Propuesta en elaboración</text></g><g class="entity" data-qualified-name="ENVIADA" id="ent0002" data-source-line="18"><rect x="228.06" y="269.887" width="219.09" height="52.594" fill="#F1F1F1" style="stroke:#181818;stroke-width:0.5;" rx="12.5" ry="12.5"/><line x1="228.06" y1="296.184" x2="447.15" y2="296.184" style="stroke:#181818;stroke-width:0.5;"/><text x="306.125" y="287.882" fill="#000" font-size="14" textLength="62.959">ENVIADA</text><text x="233.06" y="314.179" fill="#000" font-size="14" textLength="199.09">Propuesta enviada al cliente</text></g><g class="entity" data-qualified-name="EN_REVISION" id="ent0003" data-source-line="19"><rect x="7" y="399.487" width="341.2" height="52.594" fill="#F1F1F1" style="stroke:#181818;stroke-width:0.5;" rx="12.5" ry="12.5"/><line x1="7" y1="425.784" x2="348.2" y2="425.784" style="stroke:#181818;stroke-width:0.5;"/><text x="131.047" y="417.482" fill="#000" font-size="14" textLength="93.105">EN_REVISION</text><text x="12" y="443.779" fill="#000" font-size="14" textLength="321.2">Propuesta en revisión por cambios solicitados</text></g><g class="entity" data-qualified-name="ACEPTADA" id="ent0004" data-source-line="20"><rect x="460.41" y="482.077" width="256.387" height="52.594" fill="#F1F1F1" style="stroke:#181818;stroke-width:0.5;" rx="12.5" ry="12.5"/><line x1="460.41" y1="508.374" x2="716.797" y2="508.374" style="stroke:#181818;stroke-width:0.5;"/><text x="551.04" y="500.072" fill="#000" font-size="14" textLength="75.127">ACEPTADA</text><text x="465.41" y="526.369" fill="#000" font-size="14" textLength="236.387">Propuesta aceptada por el cliente</text></g><g class="entity" data-qualified-name="RECHAZADA" id="ent0005" data-source-line="21"><rect x="271.76" y="564.677" width="263.688" height="52.594" fill="#F1F1F1" style="stroke:#181818;stroke-width:0.5;" rx="12.5" ry="12.5"/><line x1="271.76" y1="590.974" x2="535.448" y2="590.974" style="stroke:#181818;stroke-width:0.5;"/><text x="359.614" y="582.672" fill="#000" font-size="14" textLength="87.979">RECHAZADA</text><text x="276.76" y="608.969" fill="#000" font-size="14" textLength="243.688">Propuesta rechazada o descartada</text></g><g class="start_entity" data-qualified-name=".start." id="ent0006" data-source-line="3"><ellipse cx="337.6" cy="53.297" rx="10" ry="10" fill="#222" style="stroke:#222;stroke-width:1;"/></g><g class="end_entity" data-qualified-name=".end." id="ent0014" data-source-line="14"><ellipse cx="495.6" cy="689.267" rx="11" ry="11" fill="none" style="stroke:#222;stroke-width:1;"/><ellipse cx="495.6" cy="689.267" rx="6" ry="6" fill="#222" style="stroke:#222;stroke-width:1;"/></g><!--link *start* to BORRADOR--><g class="link" data-entity-1="ent0006" data-entity-2="ent0001" id="lnk7" data-source-line="3" data-link-type="dependency"><path d="M337.6,63.787 C337.6,80.507 337.6,110.727 337.6,135.017" style="stroke:#181818;stroke-width:1;" fill="none" id="*start*-to-BORRADOR"/><polygon points="337.6,140.017,341.6,131.017,337.6,135.017,333.6,131.017,337.6,140.017" fill="#181818" style="stroke:#181818;stroke-width:1;stroke-linejoin:miter;stroke-miterlimit:10;"/><text x="338.6" y="106.364" fill="#000" font-size="13" textLength="103.81">crear propuesta</text></g><!--link BORRADOR to ENVIADA--><g class="link" data-entity-1="ent0001" data-entity-2="ent0002" id="lnk8" data-source-line="5" data-link-type="dependency"><path d="M337.6,193.107 C337.6,215.367 337.6,242.477 337.6,264.717" style="stroke:#181818;stroke-width:1;" fill="none" id="BORRADOR-to-ENVIADA"/><polygon points="337.6,269.717,341.6,260.717,337.6,264.717,333.6,260.717,337.6,269.717" fill="#181818" style="stroke:#181818;stroke-width:1;stroke-linejoin:miter;stroke-miterlimit:10;"/><text x="338.6" y="235.954" fill="#000" font-size="13" textLength="104.4">enviar al cliente</text></g><!--link ENVIADA to EN_REVISION--><g class="link" data-entity-1="ent0002" data-entity-2="ent0003" id="lnk9" data-source-line="7" data-link-type="dependency"><path d="M227.81,303.677 C155.03,310.547 68.81,324.477 45.6,352.487 C29.1,372.407 40.52,385.721 66.35,397.031" style="stroke:#181818;stroke-width:1;" fill="none" id="ENVIADA-to-EN_REVISION"/><polygon points="70.93,399.037,64.29,391.763,66.35,397.031,61.081,399.091,70.93,399.037" fill="#181818" style="stroke:#181818;stroke-width:1;stroke-linejoin:miter;stroke-miterlimit:10;"/><text x="46.6" y="365.554" fill="#000" font-size="13" textLength="167.851">el cliente solicita cambios</text></g><!--link EN_REVISION to ENVIADA--><g class="link" data-entity-1="ent0003" data-entity-2="ent0002" id="lnk12" data-source-line="11" data-link-type="dependency"><path d="M202.66,399.237 C217.27,384.867 236.36,366.957 254.6,352.487 C267.62,342.157 278.372,334.543 291.942,325.623" style="stroke:#181818;stroke-width:1;" fill="none" id="EN_REVISION-to-ENVIADA"/><polygon points="296.12,322.877,286.402,324.478,291.942,325.623,290.796,331.163,296.12,322.877" fill="#181818" style="stroke:#181818;stroke-width:1;stroke-linejoin:miter;stroke-miterlimit:10;"/><text x="255.6" y="365.554" fill="#000" font-size="13" textLength="136.868">enviar nueva versión</text></g><!--link ENVIADA to ACEPTADA--><g class="link" data-entity-1="ent0002" data-entity-2="ent0004" id="lnk10" data-source-line="8" data-link-type="dependency"><path d="M420.98,322.907 C462.35,339.227 510.44,364.067 543.6,399.487 C565.38,422.747 576.145,453.209 582.165,477.039" style="stroke:#181818;stroke-width:1;" fill="none" id="ENVIADA-to-ACEPTADA"/><polygon points="583.39,481.887,585.064,472.181,582.165,477.039,577.307,474.141,583.39,481.887" fill="#181818" style="stroke:#181818;stroke-width:1;stroke-linejoin:miter;stroke-miterlimit:10;"/><text x="507.6" y="365.554" fill="#000" font-size="13" textLength="108.005">el cliente acepta</text></g><!--link ENVIADA to RECHAZADA--><g class="link" data-entity-1="ent0002" data-entity-2="ent0005" id="lnk11" data-source-line="9" data-link-type="dependency"><path d="M373.92,322.827 C382.96,331.167 391.52,341.227 396.6,352.487 C428.65,423.557 418.082,514.207 409.892,559.367" style="stroke:#181818;stroke-width:1;" fill="none" id="ENVIADA-to-RECHAZADA"/><polygon points="409,564.287,414.542,556.145,409.892,559.367,406.67,554.718,409,564.287" fill="#181818" style="stroke:#181818;stroke-width:1;stroke-linejoin:miter;stroke-miterlimit:10;"/><text x="418.6" y="430.354" fill="#000" font-size="13" textLength="115.064">el cliente rechaza</text></g><!--link EN_REVISION to RECHAZADA--><g class="link" data-entity-1="ent0003" data-entity-2="ent0005" id="lnk13" data-source-line="12" data-link-type="dependency"><path d="M191.38,452.297 C205.6,476.497 229.87,512.357 259.6,534.677 C275.66,546.727 290.055,554.568 308.905,562.308" style="stroke:#181818;stroke-width:1;" fill="none" id="EN_REVISION-to-RECHAZADA"/><polygon points="313.53,564.207,306.724,557.088,308.905,562.308,303.685,564.489,313.53,564.207" fill="#181818" style="stroke:#181818;stroke-width:1;stroke-linejoin:miter;stroke-miterlimit:10;"/><text x="260.6" y="512.944" fill="#000" font-size="13" textLength="131.898">descartar propuesta</text></g><!--link ACEPTADA to *end*--><g class="link" data-entity-1="ent0004" data-entity-2="ent0014" id="lnk15" data-source-line="14" data-link-type="dependency"><path d="M582.83,534.837 C577.1,557.387 567.06,590.747 552.6,617.267 C538.52,643.077 518.307,665.293 506.397,677.463" style="stroke:#181818;stroke-width:1;" fill="none" id="ACEPTADA-to-*end*"/><polygon points="502.9,681.037,512.054,677.402,506.397,677.463,506.336,671.807,502.9,681.037" fill="#181818" style="stroke:#181818;stroke-width:1;stroke-linejoin:miter;stroke-miterlimit:10;"/></g><!--link RECHAZADA to *end*--><g class="link" data-entity-1="ent0005" data-entity-2="ent0014" id="lnk16" data-source-line="15" data-link-type="dependency"><path d="M428.01,617.527 C448.24,638.697 472.216,663.791 485.016,677.191" style="stroke:#181818;stroke-width:1;" fill="none" id="RECHAZADA-to-*end*"/><polygon points="488.47,680.807,485.146,671.536,485.016,677.191,479.361,677.062,488.47,680.807" fill="#181818" style="stroke:#181818;stroke-width:1;stroke-linejoin:miter;stroke-miterlimit:10;"/></g><?plantuml-src RP11JiCm44NtFiMiaNe15aYXjKGsJHLG5o24flP8M7BZo7Qpu5eSWOinfedjg6pjzsV-l6YY9P0XedQW2Ip2wDru8NuHuktk7JQR1tZi-hxPTJtSW_A4lcRoNmBb_jWskuOv6YR385fGrj0GIOZbymf-zFBOFhVTFi6PWk2iKIOYA3oVZ0khLBELXvTvVecWef6Rr60ljq_DwmtfINtY5wOgPVs_lOSBJGWJ-M1-leSRlfwlAIZqSMqbDqqqQnGbiRo8okfXIV9-Bemdvr7DcvTcDSCTDTPorpvNupnDvkyA69rVj6RFcXLNMaloQfMtf5HnAEhJ2psRPTnb8Hf_0G00?></g></svg>