<svg xmlns="http://www.w3.org/2000/svg" xmlns:xlink="http://www.w3.org/1999/xlink" version="1.1" data-diagram-type="SEQUENCE" style="width:1198px;height:890px;background:#FFFFFF;" width="1198px" height="890px" viewBox="0 0 1198 890" zoomAndPan="magnify" preserveAspectRatio="none" contentStyleType="text/css"><?plantuml 1.2026.7beta8?><defs/><g font-family="sans-serif" lengthAdjust="spacing"><g class="title" data-source-line="1"><text x="394.654" y="27.995" fill="#000" font-size="14" textLength="407.463" font-weight="700">Diagrama de secuencia — CU-05 Generar cotización</text></g><g><title>Comercial</title><rect x="37.158" y="120.102" width="8" height="686.508" fill="#000" fill-opacity="0"/><line x1="40.658" y1="120.102" x2="40.658" y2="806.609" style="stroke:#181818;stroke-width:0.5;stroke-dasharray:5,5;"/></g><g><title>FormularioCotizacionView</title><rect x="232.545" y="120.102" width="8" height="686.508" fill="#000" fill-opacity="0"/><line x1="236.045" y1="120.102" x2="236.045" y2="806.609" style="stroke:#181818;stroke-width:0.5;stroke-dasharray:5,5;"/></g><g><title>GenerarCotizacionController</title><rect x="469.267" y="120.102" width="8" height="686.508" fill="#000" fill-opacity="0"/><line x1="472.767" y1="120.102" x2="472.767" y2="806.609" style="stroke:#181818;stroke-width:0.5;stroke-dasharray:5,5;"/></g><g><title>SolicitudServicio</title><rect x="629.161" y="120.102" width="8" height="686.508" fill="#000" fill-opacity="0"/><line x1="632.661" y1="120.102" x2="632.661" y2="806.609" style="stroke:#181818;stroke-width:0.5;stroke-dasharray:5,5;"/></g><g><title>TarifaBase</title><rect x="729.654" y="120.102" width="8" height="686.508" fill="#000" fill-opacity="0"/><line x1="733.154" y1="120.102" x2="733.154" y2="806.609" style="stroke:#181818;stroke-width:0.5;stroke-dasharray:5,5;"/></g><g><title>ItemCotizacion</title><rect x="823.943" y="120.102" width="8" height="686.508" fill="#000" fill-opacity="0"/><line x1="827.443" y1="120.102" x2="827.443" y2="806.609" style="stroke:#181818;stroke-width:0.5;stroke-dasharray:5,5;"/></g><g><title>Cotizacion</title><rect x="917.563" y="120.102" width="8" height="686.508" fill="#000" fill-opacity="0"/><line x1="921.063" y1="120.102" x2="921.063" y2="806.609" style="stroke:#181818;stroke-width:0.5;stroke-dasharray:5,5;"/></g><g><title>AjustarPreciosController</title><rect x="1110.922" y="120.102" width="8" height="686.508" fill="#000" fill-opacity="0"/><line x1="1114.422" y1="120.102" x2="1114.422" y2="806.609" style="stroke:#181818;stroke-width:0.5;stroke-dasharray:5,5;"/></g><text x="10" y="117.507" fill="#000" font-size="11" textLength="55.317">Comercial</text><ellipse cx="40.658" cy="55.797" rx="8" ry="8" fill="#E2E2F0" style="stroke:#181818;stroke-width:0.5;"/><path d="M40.658,63.797 L40.658,90.797 M27.658,71.797 L53.658,71.797 M40.658,90.797 L27.658,105.797 M40.658,90.797 L53.658,105.797" style="stroke:#181818;stroke-width:0.5;" fill="none"/><rect x="157.636" y="92.297" width="156.817" height="26.805" fill="#FFF2CC" style="stroke:#D6B656;stroke-width:0.5;" rx="2.5" ry="2.5"/><text x="164.636" y="109.507" fill="#000" font-size="11" textLength="142.817">FormularioCotizacionView</text><rect x="387.634" y="92.297" width="170.267" height="26.805" fill="#D5E8D4" style="stroke:#82B366;stroke-width:0.5;" rx="2.5" ry="2.5"/><text x="394.634" y="109.507" fill="#000" font-size="11" textLength="156.267">GenerarCotizacionController</text><rect x="580.227" y="92.297" width="104.868" height="26.805" fill="#DAE8FC" style="stroke:#6C8EBF;stroke-width:0.5;" rx="2.5" ry="2.5"/><text x="587.227" y="109.507" fill="#000" font-size="11" textLength="90.868">SolicitudServicio</text><rect x="696.935" y="92.297" width="72.438" height="26.805" fill="#DAE8FC" style="stroke:#6C8EBF;stroke-width:0.5;" rx="2.5" ry="2.5"/><text x="703.935" y="109.507" fill="#000" font-size="11" textLength="58.438">TarifaBase</text><rect x="779.373" y="92.297" width="96.14" height="26.805" fill="#DAE8FC" style="stroke:#6C8EBF;stroke-width:0.5;" rx="2.5" ry="2.5"/><text x="786.373" y="109.507" fill="#000" font-size="11" textLength="82.14">ItemCotizacion</text><rect x="885.513" y="92.297" width="71.1" height="26.805" fill="#DAE8FC" style="stroke:#6C8EBF;stroke-width:0.5;" rx="2.5" ry="2.5"/><text x="892.513" y="109.507" fill="#000" font-size="11" textLength="57.1">Cotizacion</text><rect x="1041.073" y="92.297" width="146.698" height="26.805" fill="#D5E8D4" style="stroke:#82B366;stroke-width:0.5;" rx="2.5" ry="2.5"/><text x="1048.073" y="109.507" fill="#000" font-size="11" textLength="132.698">AjustarPreciosController</text><text x="10" y="816.82" fill="#000" font-size="11" textLength="55.317">Comercial</text><ellipse cx="40.658" cy="827.914" rx="8" ry="8" fill="#E2E2F0" style="stroke:#181818;stroke-width:0.5;"/><path d="M40.658,835.914 L40.658,862.914 M27.658,843.914 L53.658,843.914 M40.658,862.914 L27.658,877.914 M40.658,862.914 L53.658,877.914" style="stroke:#181818;stroke-width:0.5;" fill="none"/><rect x="157.636" y="806.609" width="156.817" height="26.805" fill="#FFF2CC" style="stroke:#D6B656;stroke-width:0.5;" rx="2.5" ry="2.5"/><text x="164.636" y="823.82" fill="#000" font-size="11" textLength="142.817">FormularioCotizacionView</text><rect x="387.634" y="806.609" width="170.267" height="26.805" fill="#D5E8D4" style="stroke:#82B366;stroke-width:0.5;" rx="2.5" ry="2.5"/><text x="394.634" y="823.82" fill="#000" font-size="11" textLength="156.267">GenerarCotizacionController</text><rect x="580.227" y="806.609" width="104.868" height="26.805" fill="#DAE8FC" style="stroke:#6C8EBF;stroke-width:0.5;" rx="2.5" ry="2.5"/><text x="587.227" y="823.82" fill="#000" font-size="11" textLength="90.868">SolicitudServicio</text><rect x="696.935" y="806.609" width="72.438" height="26.805" fill="#DAE8FC" style="stroke:#6C8EBF;stroke-width:0.5;" rx="2.5" ry="2.5"/><text x="703.935" y="823.82" fill="#000" font-size="11" textLength="58.438">TarifaBase</text><rect x="779.373" y="806.609" width="96.14" height="26.805" fill="#DAE8FC" style="stroke:#6C8EBF;stroke-width:0.5;" rx="2.5" ry="2.5"/><text x="786.373" y="823.82" fill="#000" font-size="11" textLength="82.14">ItemCotizacion</text><rect x="885.513" y="806.609" width="71.1" height="26.805" fill="#DAE8FC" style="stroke:#6C8EBF;stroke-width:0.5;" rx="2.5" ry="2.5"/><text x="892.513" y="823.82" fill="#000" font-size="11" textLength="57.1">Cotizacion</text><rect x="1041.073" y="806.609" width="146.698" height="26.805" fill="#D5E8D4" style="stroke:#82B366;stroke-width:0.5;" rx="2.5" ry="2.5"/><text x="1048.073" y="823.82" fill="#000" font-size="11" textLength="132.698">AjustarPreciosController</text><polygon points="224.045,142.906,234.045,146.906,224.045,150.906,228.045,146.906" fill="#181818" style="stroke:#181818;stroke-width:1;stroke-linejoin:miter;stroke-miterlimit:10;"/><line x1="40.658" y1="146.906" x2="230.045" y2="146.906" style="stroke:#181818;stroke-width:1.4;"/><text x="47.658" y="142.312" fill="#000" font-size="11" textLength="92.415">iniciar cotización</text><polygon points="460.767,169.711,470.767,173.711,460.767,177.711,464.767,173.711" fill="#181818" style="stroke:#181818;stroke-width:1;stroke-linejoin:miter;stroke-miterlimit:10;"/><line x1="236.045" y1="173.711" x2="466.767" y2="173.711" style="stroke:#181818;stroke-width:1.4;"/><text x="243.045" y="169.117" fill="#000" font-size="11" textLength="176.344">iniciarCotizacion(oportunidadId)</text><polygon points="620.661,196.516,630.661,200.516,620.661,204.516,624.661,200.516" fill="#181818" style="stroke:#181818;stroke-width:1;stroke-linejoin:miter;stroke-miterlimit:10;"/><line x1="472.767" y1="200.516" x2="626.661" y2="200.516" style="stroke:#181818;stroke-width:1.4;"/><text x="479.767" y="195.921" fill="#000" font-size="11" textLength="126.081">obtenerItemsServicio()</text><polygon points="483.767,223.32,473.767,227.32,483.767,231.32,479.767,227.32" fill="#181818" style="stroke:#181818;stroke-width:1;stroke-linejoin:miter;stroke-miterlimit:10;"/><line x1="477.767" y1="227.32" x2="631.661" y2="227.32" style="stroke:#181818;stroke-width:1.4;stroke-dasharray:2,2;"/><text x="489.767" y="222.726" fill="#000" font-size="11" textLength="135.894">lista de ítems solicitados</text><path d="M437.767,239.32 L509.526,239.32 L509.526,244.125 L499.526,254.125 L437.767,254.125 L437.767,239.32" style="stroke:#000;stroke-width:1.5;" fill="#EEE"/><rect x="437.767" y="239.32" width="430.676" height="205.633" fill="none" style="stroke:#000;stroke-width:1.5;"/><text x="452.767" y="250.531" fill="#000" font-size="11" textLength="26.759" font-weight="700">loop</text><text x="524.526" y="251.531" fill="#000" font-size="11" textLength="159.64" font-weight="700">[por cada ítem solicitado]</text><polygon points="721.154,278.93,731.154,282.93,721.154,286.93,725.154,282.93" fill="#181818" style="stroke:#181818;stroke-width:1;stroke-linejoin:miter;stroke-miterlimit:10;"/><line x1="472.767" y1="282.93" x2="727.154" y2="282.93" style="stroke:#181818;stroke-width:1.4;"/><text x="479.767" y="278.335" fill="#000" font-size="11" textLength="236.387">buscarTarifa(residuo, destinoFinal, unidad)</text><path d="M456.767,294.93 L518.219,294.93 L518.219,299.734 L508.219,309.734 L456.767,309.734 L456.767,294.93" style="stroke:#000;stroke-width:1.5;" fill="#EEE"/><rect x="456.767" y="294.93" width="386.676" height="136.023" fill="none" style="stroke:#000;stroke-width:1.5;"/><text x="471.767" y="306.14" fill="#000" font-size="11" textLength="16.452" font-weight="700">alt</text><text x="533.219" y="307.14" fill="#000" font-size="11" textLength="118.572" font-weight="700">[tarifa encontrada]</text><line x1="456.767" y1="384.344" x2="843.443" y2="384.344" style="stroke:#000;stroke-width:1;stroke-dasharray:2,2;"/><text x="461.767" y="396.554" fill="#000" font-size="11" textLength="137.79" font-weight="700">[tarifa no encontrada]</text><polygon points="483.767,334.539,473.767,338.539,483.767,342.539,479.767,338.539" fill="#181818" style="stroke:#181818;stroke-width:1;stroke-linejoin:miter;stroke-miterlimit:10;"/><line x1="477.767" y1="338.539" x2="732.154" y2="338.539" style="stroke:#181818;stroke-width:1.4;stroke-dasharray:2,2;"/><text x="489.767" y="333.945" fill="#000" font-size="11" textLength="82.172">tarifa aplicable</text><polygon points="815.443,361.344,825.443,365.344,815.443,369.344,819.443,365.344" fill="#181818" style="stroke:#181818;stroke-width:1;stroke-linejoin:miter;stroke-miterlimit:10;"/><line x1="472.767" y1="365.344" x2="821.443" y2="365.344" style="stroke:#181818;stroke-width:1.4;"/><text x="479.767" y="360.75" fill="#000" font-size="11" textLength="218.593">calcularPrecioSugerido(tarifa, cantidad)</text><polygon points="815.443,418.953,825.443,422.953,815.443,426.953,819.443,422.953" fill="#181818" style="stroke:#181818;stroke-width:1;stroke-linejoin:miter;stroke-miterlimit:10;"/><line x1="472.767" y1="422.953" x2="821.443" y2="422.953" style="stroke:#181818;stroke-width:1.4;"/><text x="479.767" y="418.359" fill="#000" font-size="11" textLength="176.833">marcarPendientePrecioManual()</text><polygon points="909.063,473.758,919.063,477.758,909.063,481.758,913.063,477.758" fill="#181818" style="stroke:#181818;stroke-width:1;stroke-linejoin:miter;stroke-miterlimit:10;"/><line x1="472.767" y1="477.758" x2="915.063" y2="477.758" style="stroke:#181818;stroke-width:1.4;"/><text x="479.767" y="473.164" fill="#000" font-size="11" textLength="173.164">crearBorradorCotizacion(items)</text><polygon points="483.767,500.563,473.767,504.563,483.767,508.563,479.767,504.563" fill="#181818" style="stroke:#181818;stroke-width:1;stroke-linejoin:miter;stroke-miterlimit:10;"/><line x1="477.767" y1="504.563" x2="920.063" y2="504.563" style="stroke:#181818;stroke-width:1.4;stroke-dasharray:2,2;"/><text x="489.767" y="499.968" fill="#000" font-size="11" textLength="302.634">cotización borrador con ítems pendientes identificados</text><polygon points="247.045,527.367,237.045,531.367,247.045,535.367,243.045,531.367" fill="#181818" style="stroke:#181818;stroke-width:1;stroke-linejoin:miter;stroke-miterlimit:10;"/><line x1="241.045" y1="531.367" x2="471.767" y2="531.367" style="stroke:#181818;stroke-width:1.4;stroke-dasharray:2,2;"/><text x="253.045" y="526.773" fill="#000" font-size="11" textLength="212.722">mostrarBorradorCotizacion(cotizacion)</text><polygon points="51.658,554.172,41.658,558.172,51.658,562.172,47.658,558.172" fill="#181818" style="stroke:#181818;stroke-width:1;stroke-linejoin:miter;stroke-miterlimit:10;"/><line x1="45.658" y1="558.172" x2="235.045" y2="558.172" style="stroke:#181818;stroke-width:1.4;stroke-dasharray:2,2;"/><text x="57.658" y="553.578" fill="#000" font-size="11" textLength="146.067">muestra precios sugeridos</text><path d="M24.658,570.172 L90.348,570.172 L90.348,574.977 L80.348,584.977 L24.658,584.977 L24.658,570.172" style="stroke:#000;stroke-width:1.5;" fill="#EEE"/><rect x="24.658" y="570.172" width="1105.764" height="212.438" fill="none" style="stroke:#000;stroke-width:1.5;"/><text x="39.658" y="581.382" fill="#000" font-size="11" textLength="20.689" font-weight="700">opt</text><text x="105.348" y="582.382" fill="#000" font-size="11" textLength="223.013" font-weight="700">[el comercial modifica algún precio]</text><polygon points="224.045,609.781,234.045,613.781,224.045,617.781,228.045,613.781" fill="#181818" style="stroke:#181818;stroke-width:1;stroke-linejoin:miter;stroke-miterlimit:10;"/><line x1="40.658" y1="613.781" x2="230.045" y2="613.781" style="stroke:#181818;stroke-width:1.4;"/><text x="47.658" y="609.187" fill="#000" font-size="11" textLength="89.327">modificar precio</text><polygon points="1102.422,636.586,1112.422,640.586,1102.422,644.586,1106.422,640.586" fill="#181818" style="stroke:#181818;stroke-width:1;stroke-linejoin:miter;stroke-miterlimit:10;"/><line x1="236.045" y1="640.586" x2="1108.422" y2="640.586" style="stroke:#181818;stroke-width:1.4;"/><text x="243.045" y="635.992" fill="#000" font-size="11" textLength="255.39">ajustarPrecio(itemId, precioFinal, justificacion)</text><polygon points="838.443,663.391,828.443,667.391,838.443,671.391,834.443,667.391" fill="#181818" style="stroke:#181818;stroke-width:1;stroke-linejoin:miter;stroke-miterlimit:10;"/><line x1="832.443" y1="667.391" x2="1113.422" y2="667.391" style="stroke:#181818;stroke-width:1.4;"/><text x="844.443" y="662.796" fill="#000" font-size="11" textLength="262.979">registrarAjusteManual(precioFinal, justificacion)</text><polygon points="932.063,690.195,922.063,694.195,932.063,698.195,928.063,694.195" fill="#181818" style="stroke:#181818;stroke-width:1;stroke-linejoin:miter;stroke-miterlimit:10;"/><line x1="926.063" y1="694.195" x2="1113.422" y2="694.195" style="stroke:#181818;stroke-width:1.4;"/><text x="938.063" y="689.601" fill="#000" font-size="11" textLength="116.768">recalcularTotalFinal()</text><polygon points="1102.422,717,1112.422,721,1102.422,725,1106.422,721" fill="#181818" style="stroke:#181818;stroke-width:1;stroke-linejoin:miter;stroke-miterlimit:10;"/><line x1="921.063" y1="721" x2="1108.422" y2="721" style="stroke:#181818;stroke-width:1.4;stroke-dasharray:2,2;"/><text x="928.063" y="716.406" fill="#000" font-size="11" textLength="52.347">total final</text><polygon points="247.045,743.805,237.045,747.805,247.045,751.805,243.045,747.805" fill="#181818" style="stroke:#181818;stroke-width:1;stroke-linejoin:miter;stroke-miterlimit:10;"/><line x1="241.045" y1="747.805" x2="1113.422" y2="747.805" style="stroke:#181818;stroke-width:1.4;stroke-dasharray:2,2;"/><text x="253.045" y="743.21" fill="#000" font-size="11" textLength="172.906">mostrarCotizacionActualizada()</text><polygon points="51.658,770.609,41.658,774.609,51.658,778.609,47.658,774.609" fill="#181818" style="stroke:#181818;stroke-width:1;stroke-linejoin:miter;stroke-miterlimit:10;"/><line x1="45.658" y1="774.609" x2="235.045" y2="774.609" style="stroke:#181818;stroke-width:1.4;stroke-dasharray:2,2;"/><text x="57.658" y="770.015" fill="#000" font-size="11" textLength="171.386">muestra cotización actualizada</text><?plantuml-src bLJ1RXCn4BtxAqRbaaWfegMDggYgr0QAUa12Qk4-iMTJKyTUR2yLHKXy1B_1YHlN_WbVmjYxctNI28b3elNEUpDlveqtwcW8NcbSUbmXA890iY4hDSAVxpzW_dx_nJ6y8KiUFKWNzGDA_VZB2X7kjAsHQH1kKRbxRPTGeGbKHkXJIaRdthlxcrijxoo500VFZmgGeWeR4o-TZTVwWU3WGDpgf2II9nU_r5GMu_-efQxHHlWg02vGtYszQwoQE-FywUd5sHaygwhgKCeKTbwHBqDgkfWUJtSnvpbyJ2VgQ9kPGoU7YvVJdSpNcObqKZsfcKDJUKABIdmJ0cLq7kPkHPvdR8Ge-zcxT7xL6FJQpRjHE_j1q_qUO83q0Bc9JLBdpi2OyoIzCuPyvd5y7hs1tCKczTePVewDkYR_cPzS9gpVGfQ_IRbXTHLUOA2CRO-xW5UHLeEc34wlTa6tO7pSXJh_s8I8_fqdHeQj9dEGYZx5UiQmVzRERWRQShRjHSunnlHpMiC6MIDNEnyRgnMgApKMFPHPmx1cu1OnUP7Q3Fr4HsCnGFOtoXZD_QGxz_WpCI2qEBvCGGZZN0rS5IGgR145WBUiqD2PC8D54oJwzZZo5BHgt8GhXAYjkzGMpGJQBiQS0Ks4s5BvagPvSYb-3tt2JRaT56iMWGj36LceoExEMA-HQOTRdwwR9NcjtAXbJpXiOo-0-6lHfxLkMyJJr2lqtDuxiagJZTHMU8ksGJFA-QmIwLVwavQ9HNb2p_UIaxlILvq6FnO9jDbiiI6mw7ZyqlPUrRs80FojufOg7aeoRbrwsBgL2zpLhl9o_JZkrZ0hxXUNgGqbBjJjqaFeniaBukh80sHDFNhbL5R1lYuVVzkEmsFPTHDwi1zW_Jqehj8CiBnqULnNQj9nkeLAY9ohxGFA18DtdfOwZw6DTgxzJwBMIIPq2tRZ8ffCpURt7cx8Zma3LG9jvNjYps3BkOoiZGyAS-P_EbCk2Wx4j8T_0G00?></g></svg>