<svg xmlns="http://www.w3.org/2000/svg" xmlns:xlink="http://www.w3.org/1999/xlink" version="1.1" data-diagram-type="CLASS" style="width:708px;height:1023px;background:#FFFFFF;" width="708px" height="1023px" viewBox="0 0 708 1023" zoomAndPan="magnify" preserveAspectRatio="none" contentStyleType="text/css"><?plantuml 1.2026.7beta8?><defs/><g font-family="sans-serif" lengthAdjust="spacing"><g class="title" data-source-line="1"><text x="237.28" y="22.995" fill="#000" font-size="14" textLength="227.192" font-weight="700">DER — Proceso de cotización</text></g><!--class SolicitudServicio--><g class="entity" data-qualified-name="SolicitudServicio" id="ent0001" data-source-line="13"><rect x="7" y="44.297" width="261.307" height="194.672" fill="#F3F7FD" style="stroke:#6C8EBF;stroke-width:0.5;" rx="2.5" ry="2.5"/><ellipse cx="75.578" cy="60.297" rx="11" ry="11" fill="#ADD1B2" style="stroke:#181818;stroke-width:1;"/><path d="M79.688,66.297 L71.969,66.297 L71.969,53.906 L79.688,53.906 L79.688,56.063 L74.422,56.063 L74.422,58.734 L79.188,58.734 L79.188,60.891 L74.422,60.891 L74.422,64.141 L79.688,64.141 L79.688,66.297 Z " fill="#000"/><text x="96.078" y="65.144" fill="#000" font-size="14" textLength="115.65">SolicitudServicio</text><line x1="8" y1="76.297" x2="267.307" y2="76.297" style="stroke:#6C8EBF;stroke-width:0.5;"/><text x="13" y="93.292" fill="#000" font-size="14" textLength="108.001">*id : UUID «PK»</text><line x1="8" y1="100.594" x2="267.307" y2="100.594" style="stroke:#6C8EBF;stroke-width:1;"/><text x="13" y="117.589" fill="#000" font-size="14" textLength="193.102">*oportunidadId : UUID «FK»</text><text x="13" y="133.886" fill="#000" font-size="14" textLength="164.521">tipoServicio : VARCHAR</text><text x="13" y="150.183" fill="#000" font-size="14" textLength="211.21">frecuenciaServicio : VARCHAR</text><text x="13" y="166.479" fill="#000" font-size="14" textLength="168.608">direccionServicio : TEXT</text><text x="13" y="182.776" fill="#000" font-size="14" textLength="190.224">restriccionesHorario : TEXT</text><text x="13" y="199.073" fill="#000" font-size="14" textLength="150.069">observaciones : TEXT</text><text x="13" y="215.37" fill="#000" font-size="14" textLength="249.307">requiereFichaSeguridad : BOOLEAN</text><text x="13" y="231.667" fill="#000" font-size="14" textLength="190.381">accesoVehiculo : BOOLEAN</text></g><!--class Cotizacion--><g class="entity" data-qualified-name="Cotizacion" id="ent0002" data-source-line="26"><rect x="417.21" y="44.297" width="256.891" height="194.672" fill="#F3F7FD" style="stroke:#6C8EBF;stroke-width:0.5;" rx="2.5" ry="2.5"/><ellipse cx="505.069" cy="60.297" rx="11" ry="11" fill="#ADD1B2" style="stroke:#181818;stroke-width:1;"/><path d="M509.178,66.297 L501.46,66.297 L501.46,53.906 L509.178,53.906 L509.178,56.063 L503.913,56.063 L503.913,58.734 L508.678,58.734 L508.678,60.891 L503.913,60.891 L503.913,64.141 L509.178,64.141 L509.178,66.297 Z " fill="#000"/><text x="525.569" y="65.144" fill="#000" font-size="14" textLength="72.673">Cotizacion</text><line x1="418.21" y1="76.297" x2="673.101" y2="76.297" style="stroke:#6C8EBF;stroke-width:0.5;"/><text x="423.21" y="93.292" fill="#000" font-size="14" textLength="108.001">*id : UUID «PK»</text><line x1="418.21" y1="100.594" x2="673.101" y2="100.594" style="stroke:#6C8EBF;stroke-width:1;"/><text x="423.21" y="117.589" fill="#000" font-size="14" textLength="166.325">*solicitudId : UUID «FK»</text><text x="423.21" y="133.886" fill="#000" font-size="14" textLength="213.76">fechaGeneracion : TIMESTAMP</text><text x="423.21" y="150.183" fill="#000" font-size="14" textLength="102.689">estado : ENUM</text><text x="423.21" y="166.479" fill="#000" font-size="14" textLength="208.53">distanciaCalculada : DECIMAL</text><text x="423.21" y="182.776" fill="#000" font-size="14" textLength="244.891">tiempoEstimadoServicio : INTEGER</text><text x="423.21" y="199.073" fill="#000" font-size="14" textLength="170.974">totalSugerido : DECIMAL</text><text x="423.21" y="215.37" fill="#000" font-size="14" textLength="141.9">totalFinal : DECIMAL</text><text x="423.21" y="231.667" fill="#000" font-size="14" textLength="150.069">observaciones : TEXT</text></g><!--class ItemServicioSolicitado--><g class="entity" data-qualified-name="ItemServicioSolicitado" id="ent0003" data-source-line="39"><rect x="9.02" y="421.157" width="227.271" height="178.375" fill="#F3F7FD" style="stroke:#6C8EBF;stroke-width:0.5;" rx="2.5" ry="2.5"/><ellipse cx="41.786" cy="437.157" rx="11" ry="11" fill="#ADD1B2" style="stroke:#181818;stroke-width:1;"/><path d="M45.895,443.157 L38.176,443.157 L38.176,430.766 L45.895,430.766 L45.895,432.923 L40.63,432.923 L40.63,435.594 L45.395,435.594 L45.395,437.751 L40.63,437.751 L40.63,441.001 L45.895,441.001 L45.895,443.157 Z " fill="#000"/><text x="59.734" y="442.004" fill="#000" font-size="14" textLength="155.791">ItemServicioSolicitado</text><line x1="10.02" y1="453.157" x2="235.291" y2="453.157" style="stroke:#6C8EBF;stroke-width:0.5;"/><text x="15.02" y="470.152" fill="#000" font-size="14" textLength="108.001">*id : UUID «PK»</text><line x1="10.02" y1="477.454" x2="235.291" y2="477.454" style="stroke:#6C8EBF;stroke-width:1;"/><text x="15.02" y="494.449" fill="#000" font-size="14" textLength="166.325">*solicitudId : UUID «FK»</text><text x="15.02" y="510.746" fill="#000" font-size="14" textLength="159.729">*residuoId : UUID «FK»</text><text x="15.02" y="527.043" fill="#000" font-size="14" textLength="202.686">cantidadEstimada : DECIMAL</text><text x="15.02" y="543.339" fill="#000" font-size="14" textLength="154.185">unidadMedida : ENUM</text><text x="15.02" y="559.636" fill="#000" font-size="14" textLength="167.002">destinoFinal : VARCHAR</text><text x="15.02" y="575.933" fill="#000" font-size="14" textLength="215.271">acondicionamiento : VARCHAR</text><text x="15.02" y="592.23" fill="#000" font-size="14" textLength="196.492">descripcionDetallada : TEXT</text></g><!--class ItemCotizacion--><g class="entity" data-qualified-name="ItemCotizacion" id="ent0004" data-source-line="51"><rect x="403.55" y="355.967" width="290.202" height="308.75" fill="#F3F7FD" style="stroke:#6C8EBF;stroke-width:0.5;" rx="2.5" ry="2.5"/><ellipse cx="492.13" cy="371.967" rx="11" ry="11" fill="#ADD1B2" style="stroke:#181818;stroke-width:1;"/><path d="M496.239,377.967 L488.521,377.967 L488.521,365.576 L496.239,365.576 L496.239,367.733 L490.974,367.733 L490.974,370.404 L495.739,370.404 L495.739,372.561 L490.974,372.561 L490.974,375.811 L496.239,375.811 L496.239,377.967 Z " fill="#000"/><text x="512.63" y="376.814" fill="#000" font-size="14" textLength="104.542">ItemCotizacion</text><line x1="404.55" y1="387.967" x2="692.752" y2="387.967" style="stroke:#6C8EBF;stroke-width:0.5;"/><text x="409.55" y="404.962" fill="#000" font-size="14" textLength="108.001">*id : UUID «PK»</text><line x1="404.55" y1="412.264" x2="692.752" y2="412.264" style="stroke:#6C8EBF;stroke-width:1;"/><text x="409.55" y="429.259" fill="#000" font-size="14" textLength="178.445">*cotizacionId : UUID «FK»</text><text x="409.55" y="445.556" fill="#000" font-size="14" textLength="172.163">tarifaBaseId : UUID «FK»</text><text x="409.55" y="461.853" fill="#000" font-size="14" textLength="188.063">itemServicioId : UUID «FK»</text><text x="409.55" y="478.149" fill="#000" font-size="14" textLength="162.155">descripcion : VARCHAR</text><text x="409.55" y="494.446" fill="#000" font-size="14" textLength="137.484">cantidad : DECIMAL</text><text x="409.55" y="510.743" fill="#000" font-size="14" textLength="130.095">unidad : VARCHAR</text><text x="409.55" y="527.04" fill="#000" font-size="14" textLength="267.777">importeTransporteAplicado : DECIMAL</text><text x="409.55" y="543.337" fill="#000" font-size="14" textLength="278.202">importeDestinoFinalAplicado : DECIMAL</text><text x="409.55" y="559.634" fill="#000" font-size="14" textLength="206.541">franquiciaAplicada : DECIMAL</text><text x="409.55" y="575.931" fill="#000" font-size="14" textLength="265.33">importeExcedenteAplicado : DECIMAL</text><text x="409.55" y="592.228" fill="#000" font-size="14" textLength="182.369">precioSugerido : DECIMAL</text><text x="409.55" y="608.524" fill="#000" font-size="14" textLength="153.296">precioFinal : DECIMAL</text><text x="409.55" y="624.821" fill="#000" font-size="14" textLength="133.67">subtotal : DECIMAL</text><text x="409.55" y="641.118" fill="#000" font-size="14" textLength="175.567">ajusteManual : BOOLEAN</text><text x="409.55" y="657.415" fill="#000" font-size="14" textLength="176.449">justificacionAjuste : TEXT</text></g><!--class Residuo--><g class="entity" data-qualified-name="Residuo" id="ent0005" data-source-line="71"><rect x="54.21" y="814.317" width="190.896" height="162.078" fill="#F3F7FD" style="stroke:#6C8EBF;stroke-width:0.5;" rx="2.5" ry="2.5"/><ellipse cx="117.483" cy="830.317" rx="11" ry="11" fill="#ADD1B2" style="stroke:#181818;stroke-width:1;"/><path d="M121.593,836.317 L113.874,836.317 L113.874,823.926 L121.593,823.926 L121.593,826.083 L116.327,826.083 L116.327,828.754 L121.093,828.754 L121.093,830.911 L116.327,830.911 L116.327,834.161 L121.593,834.161 L121.593,836.317 Z " fill="#000"/><text x="137.983" y="835.164" fill="#000" font-size="14" textLength="55.85">Residuo</text><line x1="55.21" y1="846.317" x2="244.106" y2="846.317" style="stroke:#6C8EBF;stroke-width:0.5;"/><text x="60.21" y="863.312" fill="#000" font-size="14" textLength="108.001">*id : UUID «PK»</text><line x1="55.21" y1="870.614" x2="244.106" y2="870.614" style="stroke:#6C8EBF;stroke-width:1;"/><text x="60.21" y="887.609" fill="#000" font-size="14" textLength="178.896">codigoInterno : VARCHAR</text><text x="60.21" y="903.906" fill="#000" font-size="14" textLength="123.074">grupo : VARCHAR</text><text x="60.21" y="920.203" fill="#000" font-size="14" textLength="136.438">nombre : VARCHAR</text><text x="60.21" y="936.499" fill="#000" font-size="14" textLength="172.409">codigoIbama : VARCHAR</text><text x="60.21" y="952.796" fill="#000" font-size="14" textLength="91.335">clase : ENUM</text><text x="60.21" y="969.093" fill="#000" font-size="14" textLength="124.462">activo : BOOLEAN</text></g><!--class TarifaBase--><g class="entity" data-qualified-name="TarifaBase" id="ent0006" data-source-line="82"><rect x="428.54" y="781.717" width="230.23" height="227.266" fill="#F3F7FD" style="stroke:#6C8EBF;stroke-width:0.5;" rx="2.5" ry="2.5"/><ellipse cx="502.218" cy="797.717" rx="11" ry="11" fill="#ADD1B2" style="stroke:#181818;stroke-width:1;"/><path d="M506.327,803.717 L498.608,803.717 L498.608,791.326 L506.327,791.326 L506.327,793.483 L501.061,793.483 L501.061,796.154 L505.827,796.154 L505.827,798.311 L501.061,798.311 L501.061,801.561 L506.327,801.561 L506.327,803.717 Z " fill="#000"/><text x="522.718" y="802.564" fill="#000" font-size="14" textLength="74.375">TarifaBase</text><line x1="429.54" y1="813.717" x2="657.77" y2="813.717" style="stroke:#6C8EBF;stroke-width:0.5;"/><text x="434.54" y="830.712" fill="#000" font-size="14" textLength="108.001">*id : UUID «PK»</text><line x1="429.54" y1="838.014" x2="657.77" y2="838.014" style="stroke:#6C8EBF;stroke-width:1;"/><text x="434.54" y="855.009" fill="#000" font-size="14" textLength="159.729">*residuoId : UUID «FK»</text><text x="434.54" y="871.306" fill="#000" font-size="14" textLength="184.181">codigoServicio : VARCHAR</text><text x="434.54" y="887.603" fill="#000" font-size="14" textLength="167.002">destinoFinal : VARCHAR</text><text x="434.54" y="903.899" fill="#000" font-size="14" textLength="154.185">unidadMedida : ENUM</text><text x="434.54" y="920.196" fill="#000" font-size="14" textLength="207.806">importeTransporte : DECIMAL</text><text x="434.54" y="936.493" fill="#000" font-size="14" textLength="218.23">importeDestinoFinal : DECIMAL</text><text x="434.54" y="952.79" fill="#000" font-size="14" textLength="146.556">franquicia : DECIMAL</text><text x="434.54" y="969.087" fill="#000" font-size="14" textLength="205.358">importeExcedente : DECIMAL</text><text x="434.54" y="985.384" fill="#000" font-size="14" textLength="110.086">vigencia : DATE</text><text x="434.54" y="1001.681" fill="#000" font-size="14" textLength="124.476">activa : BOOLEAN</text></g><!--link SolicitudServicio to Cotizacion--><g class="link" data-entity-1="ent0001" data-entity-2="ent0002" id="lnk7" data-source-line="97" data-link-type="dependency"><path d="M268.71,141.637 C316.13,141.637 364.61,141.637 411.83,141.637" style="stroke:#181818;stroke-width:1;" fill="none" id="SolicitudServicio-to-Cotizacion" codeLine="97"/><polygon points="416.83,141.637,407.83,137.637,411.83,141.637,407.83,145.637,416.83,141.637" fill="#181818" style="stroke:#181818;stroke-width:1;stroke-linejoin:miter;stroke-miterlimit:10;"/><text x="320.76" y="134.704" fill="#000" font-size="13" textLength="44.979">origina</text><text x="276.103" y="138.297" fill="#000" font-size="13">1</text><text x="386.157" y="138.297" fill="#000" font-size="13" textLength="23.036">0..*</text></g><!--link SolicitudServicio to ItemServicioSolicitado--><g class="link" data-entity-1="ent0001" data-entity-2="ent0003" id="lnk8" data-source-line="98" data-link-type="dependency"><path d="M133.69,239.467 C131.39,295.697 128.724,361.021 126.484,415.781" style="stroke:#181818;stroke-width:1;" fill="none" id="SolicitudServicio-to-ItemServicioSolicitado" codeLine="98"/><polygon points="126.28,420.777,130.645,411.948,126.484,415.781,122.651,411.621,126.28,420.777" fill="#181818" style="stroke:#181818;stroke-width:1;stroke-linejoin:miter;stroke-miterlimit:10;"/><text x="132.65" y="302.034" fill="#000" font-size="13" textLength="56.285">contiene</text><text x="125.14" y="258.945" fill="#000" font-size="13">1</text><text x="102.654" y="410.114" fill="#000" font-size="13" textLength="23.036">1..*</text></g><!--link Cotizacion to ItemCotizacion--><g class="link" data-entity-1="ent0002" data-entity-2="ent0004" id="lnk9" data-source-line="100" data-link-type="dependency"><path d="M546.45,239.467 C546.74,275.007 547.029,311.177 547.349,350.497" style="stroke:#181818;stroke-width:1;" fill="none" id="Cotizacion-to-ItemCotizacion" codeLine="100"/><polygon points="547.39,355.497,551.317,346.465,547.349,350.497,543.317,346.53,547.39,355.497" fill="#181818" style="stroke:#181818;stroke-width:1;stroke-linejoin:miter;stroke-miterlimit:10;"/><text x="547.65" y="302.034" fill="#000" font-size="13" textLength="57.58">desglosa</text><text x="538.234" y="258.945" fill="#000" font-size="13">1</text><text x="523.773" y="344.703" fill="#000" font-size="13" textLength="23.036">1..*</text></g><!--reverse link ItemServicioSolicitado to ItemCotizacion--><g class="link" data-entity-1="ent0003" data-entity-2="ent0004" id="lnk11" data-source-line="102" data-link-type="dependency"><path d="M241.53,510.347 C292.8,510.347 348.92,510.347 403.44,510.347" style="stroke:#181818;stroke-width:1;stroke-dasharray:7,7;" fill="none" id="ItemServicioSolicitado-backto-ItemCotizacion" codeLine="102"/><polygon points="236.53,510.347,245.53,514.347,241.53,510.347,245.53,506.347,236.53,510.347" fill="#181818" style="stroke:#181818;stroke-width:1;stroke-linejoin:miter;stroke-miterlimit:10;"/><text x="286.92" y="503.414" fill="#000" font-size="13" textLength="66.225">referencia</text><text x="244.225" y="506.961" fill="#000" font-size="13" textLength="24.807">0..1</text><text x="372.361" y="507.031" fill="#000" font-size="13" textLength="23.036">0..*</text></g><!--link ItemCotizacion to TarifaBase--><g class="link" data-entity-1="ent0004" data-entity-2="ent0006" id="lnk12" data-source-line="103" data-link-type="dependency"><path d="M546.64,665.197 C546.14,703.987 545.665,739.927 545.195,776.297" style="stroke:#181818;stroke-width:1;stroke-dasharray:7,7;" fill="none" id="ItemCotizacion-to-TarifaBase" codeLine="103"/><polygon points="545.13,781.297,549.246,772.349,545.195,776.297,541.247,772.246,545.13,781.297" fill="#181818" style="stroke:#181818;stroke-width:1;stroke-linejoin:miter;stroke-miterlimit:10;"/><text x="546.65" y="727.784" fill="#000" font-size="13" textLength="61.674">usa tarifa</text><text x="523.029" y="684.623" fill="#000" font-size="13" textLength="23.036">0..*</text><text x="520.482" y="770.581" fill="#000" font-size="13" textLength="24.807">0..1</text></g><!--link ItemServicioSolicitado to Residuo--><g class="link" data-entity-1="ent0003" data-entity-2="ent0005" id="lnk13" data-source-line="105" data-link-type="dependency"><path d="M128.88,599.697 C133.44,664.317 139.218,746.279 143.638,808.959" style="stroke:#181818;stroke-width:1;" fill="none" id="ItemServicioSolicitado-to-Residuo" codeLine="105"/><polygon points="143.99,813.947,147.347,804.688,143.638,808.959,139.367,805.251,143.99,813.947" fill="#181818" style="stroke:#181818;stroke-width:1;stroke-linejoin:miter;stroke-miterlimit:10;"/><text x="139.65" y="727.784" fill="#000" font-size="13" textLength="64.2">es de tipo</text><text x="105.461" y="619.487" fill="#000" font-size="13" textLength="23.036">0..*</text><text x="135.171" y="803.379" fill="#000" font-size="13">1</text></g><!--link Residuo to TarifaBase--><g class="link" data-entity-1="ent0005" data-entity-2="ent0006" id="lnk14" data-source-line="106" data-link-type="dependency"><path d="M245.53,895.357 C300.66,895.357 365.27,895.357 423.37,895.357" style="stroke:#181818;stroke-width:1;" fill="none" id="Residuo-to-TarifaBase" codeLine="106"/><polygon points="428.37,895.357,419.37,891.357,423.37,895.357,419.37,899.357,428.37,895.357" fill="#181818" style="stroke:#181818;stroke-width:1;stroke-linejoin:miter;stroke-miterlimit:10;"/><text x="297.82" y="888.424" fill="#000" font-size="13" textLength="78.413">tiene tarifas</text><text x="253.187" y="891.855" fill="#000" font-size="13">1</text><text x="397.645" y="891.971" fill="#000" font-size="13" textLength="23.036">0..*</text></g><?plantuml-src fLPTRjf047xtALRqBH9HKAMsGb4a0oP13Ka49Ehhi1xCDcRNtLsdRQfAFKHlqYFq9Zr9Psq3DYn1LT-i-MRdvvjlTcs5JP4DeWdxy-CdkzEAer4iHiQL5S_0nUzVCWZCev0PQ5Wnde8neRLQp7EB8wxaL3mZEwkvc2N4whEG2Lj0Qh26I1MZmOnrpkh-6kJZshgRYNqB6Ei1VqoqocNSLwdIxDNmzV3jSE0GfMFKbVLD_rtK6mRVWm2b5VOhcwfKS67pU8hwYRvK4Us4YPXrsVtzQC3Ep-_UNroGiTqk49KfRNCfOeX7DQTXwMH5fZQXkkmXdFIlmWa12uqyHya5UE5O44v6MKDdqOSPGHeDKLc0QAwK1br7rTpG2IZH-g5FkK2DGy6Nb379jIkOyDxjxNKKtf0BS3V71rmAdgUg1ctPwLS3Ll8eBMPDf8UK1L8HboXHbx6eoj4ucix2yHsXr1w9WOpHpVsue88CZgW-f5GPn43O8EgFnk5rmJ2kCXKPArPqh4RNw6OMNKQEJAiifDCyGMfQDGyxP2Waf0spbyGj3IEBgtMYIZ2kul-XvCIDLSIvyc0SA2rDg-gnsNwfl376eW3Md169GgfrPrjT0MrVxEgMi1BKpexgq70jCWSFa9YfoFQq_mzAu1jNttwGUXVG0uCUKDHuzi2rQXjThFdoyDJm4oktkZYZoyGKNs560u8TYLHUWngZNhy5XQ4T8vrMCFZ2H5yuniIZFrT6Iq-IyYcrXFQbQl9v8UA64Jxcnk8OP5u0snrtTh6Wn8wqiF3Qd--aLEAHmN8LYqIDg1KjcofAT9urBLAjvXgRGogFps45JJjTuRWLCd0hdloNqMmZdQCIV66tYZByL_2X7VAlt9wQZgdeW7fUL4q3V199yO0uOpYBrcn1awtz5wtLQR6s5idIjYzOw-pqzAHLlzcxJ1585HuwIY-rT2SxnSa3bs6NgAKvqIKV1BNW1m8qqXFnIQeC1C4ELDLwckB2dfQbTrueGEE2NZp7qA50hf1je9gWkYmtK5rEPHcU35MKRJkjpUfqwHLpVqJk-G_MHX_lZPm5NLLMynS0?></g></svg>